<mxfile host="app.diagrams.net" modified="2023-12-11T08:57:19.772Z" agent="Mozilla/5.0 (Windows NT 10.0; Win64; x64) AppleWebKit/537.36 (KHTML, like Gecko) Chrome/120.0.0.0 Safari/537.36" version="22.1.7" etag="TNG8-oAe2jdOK_pbmD6e" type="github">
  <diagram name="Pagina-1" id="9ha8Ffd3uAg9Q1pEPPvm">
    <mxGraphModel>
      <root>
        <mxCell id="0" />
        <mxCell id="1" parent="0" />
      </root>
    </mxGraphModel>
  </diagram>
</mxfile>
